<svg width="14" height="14" viewBox="0 0 14 14" fill="none" xmlns="http://www.w3.org/2000/svg">
<g id="verified">
<mask id="mask0_102_1685" style="mask-type:alpha" maskUnits="userSpaceOnUse" x="0" y="0" width="14" height="14">
<rect id="Bounding box" width="14" height="14" fill="#D9D9D9"/>
</mask>
<g mask="url(#mask0_102_1685)">
<path id="verified_2" d="M6.3875 7.62149L5.44069 6.68366C5.35993 6.6029 5.25991 6.56158 5.14062 6.55971C5.02134 6.55784 4.91646 6.60215 4.82597 6.69265C4.74146 6.77715 4.6992 6.87961 4.6992 7.00001C4.6992 7.12041 4.74146 7.22286 4.82597 7.30736L6.01844 8.49983C6.12389 8.60528 6.24691 8.658 6.3875 8.658C6.52809 8.658 6.65111 8.60528 6.75656 8.49983L9.17402 6.08236C9.26077 5.99562 9.30359 5.8941 9.30247 5.77781C9.30136 5.66152 9.25854 5.55813 9.17402 5.46765C9.08354 5.37715 8.97959 5.33041 8.86217 5.32741C8.74477 5.32443 8.64082 5.36818 8.55032 5.45866L6.3875 7.62149ZM4.90561 12.3566L4.09905 11.0003L2.57342 10.6727C2.44254 10.6473 2.33802 10.5785 2.25988 10.4663C2.18173 10.3542 2.15051 10.2326 2.16621 10.1017L2.31541 8.53236L1.27775 7.34551C1.18801 7.24979 1.14314 7.13462 1.14314 7.00001C1.14314 6.86539 1.18801 6.75022 1.27775 6.6545L2.31541 5.46765L2.16621 3.89826C2.15051 3.76738 2.18173 3.64585 2.25988 3.53368C2.33802 3.42149 2.44254 3.35269 2.57342 3.32727L4.09905 2.99971L4.90561 1.64346C4.97592 1.52829 5.07165 1.44976 5.1928 1.40788C5.31395 1.36601 5.43697 1.37237 5.56186 1.42696L7 2.03496L8.43813 1.42696C8.56303 1.37237 8.68605 1.36601 8.80719 1.40788C8.92835 1.44976 9.02408 1.52829 9.09438 1.64346L9.90094 2.99971L11.4266 3.32727C11.5575 3.35269 11.662 3.42149 11.7401 3.53368C11.8183 3.64585 11.8495 3.76738 11.8338 3.89826L11.6846 5.46765L12.7222 6.6545C12.812 6.75022 12.8569 6.86539 12.8569 7.00001C12.8569 7.13462 12.812 7.24979 12.7222 7.34551L11.6846 8.53236L11.8338 10.1017C11.8495 10.2326 11.8183 10.3542 11.7401 10.4663C11.662 10.5785 11.5575 10.6473 11.4266 10.6727L9.90094 11.0003L9.09438 12.3566C9.02408 12.4717 8.92835 12.5502 8.80719 12.5921C8.68605 12.634 8.56303 12.6277 8.43813 12.5731L7 11.965L5.56186 12.5731C5.43697 12.6276 5.31395 12.634 5.1928 12.5921C5.07165 12.5502 4.97592 12.4717 4.90561 12.3566Z" fill="#057FFF"/>
</g>
</g>
</svg>
