<svg width="24" height="24" viewBox="0 0 24 24" fill="none" xmlns="http://www.w3.org/2000/svg">
<g id="sms">
<mask id="mask0_102_1700" style="mask-type:alpha" maskUnits="userSpaceOnUse" x="0" y="0" width="24" height="24">
<rect id="Bounding box" width="24" height="24" fill="#D9D9D9"/>
</mask>
<g mask="url(#mask0_102_1700)">
<path id="sms_2" d="M8 10.8846C8.24486 10.8846 8.45351 10.7984 8.62595 10.6259C8.79838 10.4535 8.8846 10.2448 8.8846 9.99998C8.8846 9.75511 8.79838 9.54646 8.62595 9.37402C8.45351 9.20159 8.24486 9.11538 8 9.11538C7.75513 9.11538 7.54648 9.20159 7.37405 9.37402C7.20161 9.54646 7.1154 9.75511 7.1154 9.99998C7.1154 10.2448 7.20161 10.4535 7.37405 10.6259C7.54648 10.7984 7.75513 10.8846 8 10.8846ZM12 10.8846C12.2449 10.8846 12.4535 10.7984 12.6259 10.6259C12.7984 10.4535 12.8846 10.2448 12.8846 9.99998C12.8846 9.75511 12.7984 9.54646 12.6259 9.37402C12.4535 9.20159 12.2449 9.11538 12 9.11538C11.7551 9.11538 11.5465 9.20159 11.374 9.37402C11.2016 9.54646 11.1154 9.75511 11.1154 9.99998C11.1154 10.2448 11.2016 10.4535 11.374 10.6259C11.5465 10.7984 11.7551 10.8846 12 10.8846ZM16 10.8846C16.2449 10.8846 16.4535 10.7984 16.626 10.6259C16.7984 10.4535 16.8846 10.2448 16.8846 9.99998C16.8846 9.75511 16.7984 9.54646 16.626 9.37402C16.4535 9.20159 16.2449 9.11538 16 9.11538C15.7551 9.11538 15.5465 9.20159 15.374 9.37402C15.2016 9.54646 15.1154 9.75511 15.1154 9.99998C15.1154 10.2448 15.2016 10.4535 15.374 10.6259C15.5465 10.7984 15.7551 10.8846 16 10.8846ZM6.03847 17.5L4.03657 19.5019C3.75196 19.7865 3.42471 19.8509 3.05485 19.6951C2.68496 19.5393 2.50002 19.2589 2.50002 18.8538V4.3077C2.50002 3.80257 2.67502 3.375 3.02502 3.025C3.37502 2.675 3.80259 2.5 4.30772 2.5H19.6923C20.1974 2.5 20.625 2.675 20.975 3.025C21.325 3.375 21.5 3.80257 21.5 4.3077V15.6923C21.5 16.1974 21.325 16.625 20.975 16.975C20.625 17.325 20.1974 17.5 19.6923 17.5H6.03847ZM5.40002 16H19.6923C19.7692 16 19.8397 15.9679 19.9039 15.9038C19.968 15.8397 20 15.7692 20 15.6923V4.3077C20 4.23077 19.968 4.16024 19.9039 4.09613C19.8397 4.03203 19.7692 3.99998 19.6923 3.99998H4.30772C4.23079 3.99998 4.16026 4.03203 4.09615 4.09613C4.03205 4.16024 4 4.23077 4 4.3077V17.3846L5.40002 16Z" fill="#24272E" fill-opacity="0.6"/>
</g>
</g>
</svg>
