<svg width="14" height="14" viewBox="0 0 14 14" fill="none" xmlns="http://www.w3.org/2000/svg">
<g id="Instagram 1" clip-path="url(#clip0_155_1361)">
<g id="Symbol">
<g id="Group">
<path id="Vector" d="M2.62776 0.634351C2.18479 0.806616 1.81018 1.0363 1.43557 1.41091C1.06096 1.78279 0.831274 2.16013 0.659009 2.60037C0.492212 3.02693 0.380103 3.51638 0.34729 4.23279C0.314478 4.94919 0.306274 5.17888 0.306274 7.00544C0.306274 8.83201 0.314478 9.06169 0.34729 9.7781C0.380103 10.4945 0.494946 10.984 0.659009 11.4105C0.831274 11.8535 1.06096 12.2281 1.43557 12.6027C1.81018 12.9773 2.18479 13.207 2.62776 13.3793C3.05432 13.5461 3.54377 13.6582 4.26018 13.691C4.97659 13.7238 5.20627 13.732 7.03284 13.732C8.8594 13.732 9.08909 13.7238 9.80549 13.691C10.5219 13.6582 11.0114 13.5433 11.4379 13.3793C11.8809 13.207 12.2555 12.9773 12.6301 12.6027C13.0047 12.2281 13.2344 11.8535 13.4067 11.4105C13.5735 10.984 13.6856 10.4945 13.7184 9.7781C13.7512 9.06169 13.7594 8.83201 13.7594 7.00544C13.7594 5.17888 13.7512 4.94919 13.7184 4.23279C13.6856 3.51638 13.5707 3.02693 13.4067 2.60037C13.2344 2.16013 13.0047 1.78279 12.6328 1.41091C12.2582 1.0363 11.8836 0.806616 11.4406 0.634351C11.0141 0.467554 10.5246 0.355444 9.80823 0.322632C9.09182 0.289819 8.86213 0.281616 7.03557 0.281616C5.20901 0.281616 4.97932 0.289819 4.26291 0.322632C3.54377 0.35271 3.05432 0.467554 2.62776 0.634351ZM9.75081 1.53123C10.4071 1.5613 10.7625 1.67068 11.0004 1.76365C11.3149 1.88669 11.5391 2.03162 11.7742 2.26677C12.0094 2.50193 12.1543 2.72615 12.2774 3.0406C12.3703 3.27849 12.4797 3.63396 12.5098 4.29021C12.5426 4.99841 12.5481 5.21169 12.5481 7.00818C12.5481 8.80466 12.5399 9.01794 12.5098 9.72615C12.4797 10.3824 12.3703 10.7379 12.2774 10.9758C12.1543 11.2902 12.0094 11.5144 11.7742 11.7496C11.5391 11.9847 11.3149 12.1297 11.0004 12.2527C10.7625 12.3457 10.4071 12.4551 9.75081 12.4851C9.0426 12.5179 8.82932 12.5234 7.03284 12.5234C5.23635 12.5234 5.02307 12.5152 4.31487 12.4851C3.65862 12.4551 3.30315 12.3457 3.06526 12.2527C2.75081 12.1297 2.52659 11.9847 2.29143 11.7496C2.05627 11.5144 1.91135 11.2902 1.78831 10.9758C1.69534 10.7379 1.58596 10.3824 1.55588 9.72615C1.52307 9.01794 1.5176 8.80466 1.5176 7.00818C1.5176 5.21169 1.52581 4.99841 1.55588 4.29021C1.58596 3.63396 1.69534 3.27849 1.78831 3.0406C1.91135 2.72615 2.05627 2.50193 2.29143 2.26677C2.52659 2.03162 2.75081 1.88669 3.06526 1.76365C3.30315 1.67068 3.65862 1.5613 4.31487 1.53123C5.02307 1.49841 5.23635 1.49294 7.03284 1.49294C8.82932 1.49294 9.0426 1.49841 9.75081 1.53123Z" fill="#24272E" fill-opacity="0.32"/>
<path id="Vector_2" d="M3.57935 7.0082C3.57935 8.9168 5.127 10.4617 7.03286 10.4617C8.93872 10.4617 10.4864 8.91406 10.4864 7.0082C10.4864 5.10234 8.94146 3.55469 7.03286 3.55469C5.12427 3.55469 3.57935 5.09961 3.57935 7.0082ZM9.27505 7.0082C9.27505 8.24687 8.27153 9.25039 7.03286 9.25039C5.79419 9.25039 4.79067 8.24687 4.79067 7.0082C4.79067 5.76953 5.79419 4.76602 7.03286 4.76602C8.27153 4.76602 9.27505 5.76953 9.27505 7.0082Z" fill="#24272E" fill-opacity="0.32"/>
<path id="Vector_3" d="M10.6259 4.22461C11.0713 4.22461 11.4325 3.86346 11.4325 3.41797C11.4325 2.97247 11.0713 2.61133 10.6259 2.61133C10.1804 2.61133 9.81921 2.97247 9.81921 3.41797C9.81921 3.86346 10.1804 4.22461 10.6259 4.22461Z" fill="#24272E" fill-opacity="0.32"/>
</g>
</g>
</g>
<defs>
<clipPath id="clip0_155_1361">
<rect width="14" height="14" fill="white"/>
</clipPath>
</defs>
</svg>
