<svg width="25" height="24" viewBox="0 0 25 24" fill="none" xmlns="http://www.w3.org/2000/svg">
<g id="assignment_ind">
<mask id="mask0_162_1652" style="mask-type:alpha" maskUnits="userSpaceOnUse" x="0" y="0" width="25" height="24">
<rect id="Bounding box" x="0.5" width="24" height="24" fill="#D9D9D9"/>
</mask>
<g mask="url(#mask0_162_1652)">
<path id="assignment_ind_2" d="M5.8077 20.5C5.30257 20.5 4.875 20.325 4.525 19.975C4.175 19.625 4 19.1974 4 18.6923V5.3077C4 4.80257 4.175 4.375 4.525 4.025C4.875 3.675 5.30257 3.5 5.8077 3.5H10.2577C10.3372 2.93847 10.5853 2.46475 11.0019 2.07885C11.4186 1.69295 11.9179 1.5 12.5 1.5C13.082 1.5 13.5814 1.69295 13.998 2.07885C14.4147 2.46475 14.6628 2.93847 14.7423 3.5H19.1923C19.6974 3.5 20.125 3.675 20.475 4.025C20.825 4.375 21 4.80257 21 5.3077V18.6923C21 19.1974 20.825 19.625 20.475 19.975C20.125 20.325 19.6974 20.5 19.1923 20.5H5.8077ZM12.5 4.34613C12.7166 4.34613 12.8958 4.27529 13.0375 4.13363C13.1791 3.99196 13.25 3.81279 13.25 3.59613C13.25 3.37946 13.1791 3.20029 13.0375 3.05863C12.8958 2.91696 12.7166 2.84613 12.5 2.84613C12.2833 2.84613 12.1041 2.91696 11.9625 3.05863C11.8208 3.20029 11.75 3.37946 11.75 3.59613C11.75 3.81279 11.8208 3.99196 11.9625 4.13363C12.1041 4.27529 12.2833 4.34613 12.5 4.34613ZM5.49997 18.0423C6.39998 17.159 7.44581 16.4631 8.63748 15.9548C9.82914 15.4465 11.1166 15.1923 12.5 15.1923C13.8833 15.1923 15.1708 15.4465 16.3625 15.9548C17.5541 16.4631 18.6 17.159 19.5 18.0423V5.3077C19.5 5.23077 19.4679 5.16024 19.4038 5.09613C19.3397 5.03203 19.2692 4.99998 19.1923 4.99998H5.8077C5.73077 4.99998 5.66024 5.03203 5.59612 5.09613C5.53202 5.16024 5.49997 5.23077 5.49997 5.3077V18.0423ZM12.5 13.0385C13.4025 13.0385 14.1698 12.7224 14.8019 12.0904C15.4339 11.4583 15.75 10.691 15.75 9.78845C15.75 8.8859 15.4339 8.1186 14.8019 7.48655C14.1698 6.8545 13.4025 6.53848 12.5 6.53848C11.5974 6.53848 10.8301 6.8545 10.1981 7.48655C9.56603 8.1186 9.25 8.8859 9.25 9.78845C9.25 10.691 9.56603 11.4583 10.1981 12.0904C10.8301 12.7224 11.5974 13.0385 12.5 13.0385ZM6.94225 19H18.0577V18.7885C17.268 18.0833 16.4016 17.5577 15.4587 17.2115C14.5157 16.8653 13.5295 16.6923 12.5 16.6923C11.4833 16.6923 10.5019 16.8637 9.55573 17.2067C8.60956 17.5497 7.7384 18.0705 6.94225 18.7692V19ZM12.5 11.5385C12.0192 11.5385 11.6073 11.367 11.2644 11.0241C10.9214 10.6811 10.75 10.2692 10.75 9.78845C10.75 9.30768 10.9214 8.89583 11.2644 8.55288C11.6073 8.20993 12.0192 8.03845 12.5 8.03845C12.9807 8.03845 13.3926 8.20993 13.7356 8.55288C14.0785 8.89583 14.25 9.30768 14.25 9.78845C14.25 10.2692 14.0785 10.6811 13.7356 11.0241C13.3926 11.367 12.9807 11.5385 12.5 11.5385Z" fill="#24272E" fill-opacity="0.32"/>
</g>
</g>
</svg>
