<svg width="25" height="24" viewBox="0 0 25 24" fill="none" xmlns="http://www.w3.org/2000/svg">
<g id="favorite">
<mask id="mask0_162_1676" style="mask-type:alpha" maskUnits="userSpaceOnUse" x="0" y="0" width="25" height="24">
<rect id="Bounding box" x="0.5" width="24" height="24" fill="#D9D9D9"/>
</mask>
<g mask="url(#mask0_162_1676)">
<path id="favorite_2" d="M12.4904 19.7096C12.2763 19.7096 12.0612 19.6711 11.8452 19.5942C11.6291 19.5173 11.4391 19.3968 11.275 19.2327L9.83848 17.9269C8.06539 16.3102 6.48238 14.7221 5.08943 13.1625C3.69648 11.6029 3 9.93203 3 8.15C3 6.73078 3.47852 5.54265 4.43558 4.5856C5.39263 3.62855 6.58076 3.15002 7.99998 3.15002C8.80638 3.15002 9.60285 3.33593 10.3894 3.70773C11.1759 4.07953 11.8795 4.68337 12.5 5.51927C13.1205 4.68337 13.824 4.07953 14.6105 3.70773C15.3971 3.33593 16.1936 3.15002 17 3.15002C18.4192 3.15002 19.6073 3.62855 20.5644 4.5856C21.5214 5.54265 22 6.73078 22 8.15C22 9.95127 21.2916 11.6407 19.875 13.2183C18.4583 14.7958 16.8788 16.3705 15.1365 17.9423L13.7154 19.2327C13.5513 19.3968 13.3596 19.5173 13.1404 19.5942C12.9211 19.6711 12.7045 19.7096 12.4904 19.7096ZM11.7808 7.03848C11.2397 6.21411 10.6702 5.60994 10.0721 5.22598C9.47402 4.84199 8.78331 4.65 7.99998 4.65C6.99998 4.65 6.16664 4.98333 5.49998 5.65C4.83331 6.31667 4.49998 7.15 4.49998 8.15C4.49998 8.95257 4.75863 9.79167 5.27593 10.6673C5.79323 11.5429 6.44257 12.4134 7.22398 13.2788C8.00539 14.1442 8.85187 14.9897 9.7634 15.8154C10.6749 16.641 11.5198 17.4083 12.298 18.1173C12.3557 18.1686 12.423 18.1942 12.5 18.1942C12.5769 18.1942 12.6442 18.1686 12.7019 18.1173C13.4801 17.4083 14.325 16.641 15.2366 15.8154C16.1481 14.9897 16.9946 14.1442 17.776 13.2788C18.5574 12.4134 19.2067 11.5429 19.724 10.6673C20.2413 9.79167 20.5 8.95257 20.5 8.15C20.5 7.15 20.1666 6.31667 19.5 5.65C18.8333 4.98333 18 4.65 17 4.65C16.2166 4.65 15.5259 4.84199 14.9279 5.22598C14.3298 5.60994 13.7602 6.21411 13.2192 7.03848C13.1346 7.16668 13.0282 7.26283 12.9 7.32695C12.7718 7.39105 12.6384 7.4231 12.5 7.4231C12.3615 7.4231 12.2282 7.39105 12.1 7.32695C11.9718 7.26283 11.8654 7.16668 11.7808 7.03848Z" fill="#24272E" fill-opacity="0.32"/>
</g>
</g>
</svg>
