<svg width="29" height="28" viewBox="0 0 29 28" fill="none" xmlns="http://www.w3.org/2000/svg">
<g id="auto_awesome_mosaic">
<mask id="mask0_102_1915" style="mask-type:alpha" maskUnits="userSpaceOnUse" x="0" y="0" width="29" height="28">
<rect id="Bounding box" x="0.125" width="28" height="28" fill="#D9D9D9"/>
</mask>
<g mask="url(#mask0_102_1915)">
<path id="auto_awesome_mosaic_2" d="M12.9583 23.9167H6.31736C5.72804 23.9167 5.22921 23.7125 4.82087 23.3042C4.41254 22.8958 4.20837 22.397 4.20837 21.8077V6.19236C4.20837 5.60304 4.41254 5.10421 4.82087 4.69587C5.22921 4.28754 5.72804 4.08337 6.31736 4.08337H12.9583V23.9167ZM11.2084 22.1667V5.83335H6.31736C6.21265 5.83335 6.12664 5.867 6.05932 5.93432C5.992 6.00164 5.95834 6.08765 5.95834 6.19236V21.8077C5.95834 21.9124 5.992 21.9984 6.05932 22.0657C6.12664 22.133 6.21265 22.1667 6.31736 22.1667H11.2084ZM15.2917 12.8333V4.08337H21.9327C22.522 4.08337 23.0208 4.28754 23.4292 4.69587C23.8375 5.10421 24.0417 5.60304 24.0417 6.19236V12.8333H15.2917ZM17.0416 11.0834H22.2917V6.19236C22.2917 6.08765 22.258 6.00164 22.1907 5.93432C22.1234 5.867 22.0374 5.83335 21.9327 5.83335H17.0416V11.0834ZM15.2917 23.9167V15.1667H24.0417V21.8077C24.0417 22.397 23.8375 22.8958 23.4292 23.3042C23.0208 23.7125 22.522 23.9167 21.9327 23.9167H15.2917ZM17.0416 22.1667H21.9327C22.0374 22.1667 22.1234 22.133 22.1907 22.0657C22.258 21.9984 22.2917 21.9124 22.2917 21.8077V16.9166H17.0416V22.1667Z" fill="#24272E" fill-opacity="0.32"/>
</g>
</g>
</svg>
