<svg width="29" height="28" viewBox="0 0 29 28" fill="none" xmlns="http://www.w3.org/2000/svg">
<g id="face">
<mask id="mask0_98_914" style="mask-type:alpha" maskUnits="userSpaceOnUse" x="0" y="0" width="29" height="28">
<rect id="Bounding box" x="0.875" width="28" height="28" fill="#D9D9D9"/>
</mask>
<g mask="url(#mask0_98_914)">
<path id="face_2" d="M11.375 16.6251C10.9667 16.6251 10.6215 16.4841 10.3396 16.2021C10.0576 15.9202 9.91667 15.5751 9.91667 15.1667C9.91667 14.7584 10.0576 14.4132 10.3396 14.1313C10.6215 13.8494 10.9667 13.7084 11.375 13.7084C11.7833 13.7084 12.1285 13.8494 12.4104 14.1313C12.6924 14.4132 12.8333 14.7584 12.8333 15.1667C12.8333 15.5751 12.6924 15.9202 12.4104 16.2021C12.1285 16.4841 11.7833 16.6251 11.375 16.6251ZM18.375 16.6251C17.9667 16.6251 17.6215 16.4841 17.3396 16.2021C17.0576 15.9202 16.9167 15.5751 16.9167 15.1667C16.9167 14.7584 17.0576 14.4132 17.3396 14.1313C17.6215 13.8494 17.9667 13.7084 18.375 13.7084C18.7833 13.7084 19.1285 13.8494 19.4104 14.1313C19.6924 14.4132 19.8333 14.7584 19.8333 15.1667C19.8333 15.5751 19.6924 15.9202 19.4104 16.2021C19.1285 16.4841 18.7833 16.6251 18.375 16.6251ZM14.875 23.3334C17.4806 23.3334 19.6875 22.4292 21.4958 20.6209C23.3042 18.8126 24.2083 16.6056 24.2083 14.0001C24.2083 13.5334 24.1792 13.0813 24.1208 12.6438C24.0625 12.2063 23.9556 11.7834 23.8 11.3751C23.3917 11.4723 22.9833 11.5452 22.575 11.5938C22.1667 11.6424 21.7389 11.6667 21.2917 11.6667C19.5222 11.6667 17.85 11.2876 16.275 10.5292C14.7 9.77089 13.3583 8.71116 12.25 7.35005C11.6278 8.86672 10.7382 10.1841 9.58126 11.3021C8.42431 12.4202 7.07778 13.2612 5.54167 13.8251V14.0001C5.54167 16.6056 6.44584 18.8126 8.25417 20.6209C10.0625 22.4292 12.2695 23.3334 14.875 23.3334ZM14.877 25.0834C13.344 25.0834 11.9032 24.7925 10.5543 24.2107C9.2055 23.6289 8.03221 22.8394 7.03445 21.8421C6.03668 20.8447 5.24678 19.672 4.66475 18.3237C4.08272 16.9755 3.7917 15.5349 3.7917 14.002C3.7917 12.4691 4.08259 11.0282 4.66437 9.67939C5.24615 8.33055 6.03569 7.15725 7.03299 6.1595C8.03032 5.16173 9.2031 4.37183 10.5513 3.7898C11.8996 3.20776 13.3401 2.91675 14.8731 2.91675C16.406 2.91675 17.8468 3.20764 19.1957 3.78942C20.5445 4.37119 21.7178 5.16073 22.7156 6.15804C23.7133 7.15536 24.5032 8.32815 25.0853 9.67639C25.6673 11.0246 25.9583 12.4652 25.9583 13.9981C25.9583 15.531 25.6674 16.9719 25.0856 18.3207C24.5039 19.6696 23.7143 20.8429 22.717 21.8406C21.7197 22.8384 20.5469 23.6283 19.1987 24.2103C17.8505 24.7923 16.4099 25.0834 14.877 25.0834ZM12.7503 4.92473C13.6343 6.55511 14.8604 7.79471 16.4287 8.64354C17.997 9.49235 19.618 9.91675 21.2917 9.91675C21.6088 9.91675 21.918 9.9003 22.2194 9.8674C22.5208 9.8345 22.8263 9.78739 23.1359 9.72606C22.3567 8.17797 21.2278 6.94772 19.7492 6.03531C18.2707 5.12291 16.6459 4.66672 14.875 4.66672C14.4831 4.66672 14.1178 4.68878 13.779 4.7329C13.4402 4.77704 13.0973 4.84098 12.7503 4.92473ZM5.86921 11.7722C6.96559 11.2233 8.00664 10.4212 8.99235 9.36597C9.97805 8.31072 10.6145 7.04568 10.9017 5.57086C9.62577 6.14972 8.54734 6.98173 7.66635 8.06688C6.78536 9.15204 6.18631 10.3871 5.86921 11.7722Z" fill="#24272E" fill-opacity="0.32"/>
</g>
</g>
</svg>
