<svg width="29" height="28" viewBox="0 0 29 28" fill="none" xmlns="http://www.w3.org/2000/svg">
<g id="search">
<mask id="mask0_98_909" style="mask-type:alpha" maskUnits="userSpaceOnUse" x="0" y="0" width="29" height="28">
<rect id="Bounding box" x="0.625" width="28" height="28" fill="#D9D9D9"/>
</mask>
<g mask="url(#mask0_98_909)">
<path id="search_2" d="M11.7308 18.2179C9.73847 18.2179 8.0513 17.5269 6.66927 16.1448C5.28721 14.7628 4.59619 13.0756 4.59619 11.0833C4.59619 9.09101 5.28721 7.40383 6.66927 6.02178C8.0513 4.63975 9.73847 3.94873 11.7308 3.94873C13.7231 3.94873 15.4102 4.63975 16.7923 6.02178C18.1743 7.40383 18.8654 9.09101 18.8654 11.0833C18.8654 11.9164 18.7255 12.7121 18.4458 13.4705C18.1661 14.2288 17.7929 14.8884 17.3262 15.4493L24.0391 22.1621C24.2006 22.3237 24.2833 22.5267 24.287 22.7713C24.2907 23.0158 24.2081 23.2226 24.0391 23.3916C23.8701 23.5606 23.6651 23.6451 23.4244 23.6451C23.1835 23.6451 22.9786 23.5606 22.8096 23.3916L16.0968 16.6788C15.5134 17.1604 14.8426 17.5373 14.0843 17.8095C13.3259 18.0818 12.5414 18.2179 11.7308 18.2179ZM11.7308 16.4679C13.234 16.4679 14.5072 15.9463 15.5505 14.903C16.5938 13.8598 17.1154 12.5865 17.1154 11.0833C17.1154 9.58009 16.5938 8.30685 15.5505 7.26358C14.5072 6.22031 13.234 5.69867 11.7308 5.69867C10.2276 5.69867 8.95431 6.22031 7.91104 7.26358C6.86778 8.30685 6.34616 9.58009 6.34616 11.0833C6.34616 12.5865 6.86778 13.8598 7.91104 14.903C8.95431 15.9463 10.2276 16.4679 11.7308 16.4679Z" fill="#24272E" fill-opacity="0.32"/>
</g>
</g>
</svg>
