<svg width="29" height="28" viewBox="0 0 29 28" fill="none" xmlns="http://www.w3.org/2000/svg">
<g id="inbox">
<mask id="mask0_98_904" style="mask-type:alpha" maskUnits="userSpaceOnUse" x="0" y="0" width="29" height="28">
<rect id="Bounding box" x="0.375" width="28" height="28" fill="#D9D9D9"/>
</mask>
<g mask="url(#mask0_98_904)">
<path id="inbox_2" d="M6.56735 23.9167C5.97802 23.9167 5.4792 23.7125 5.07086 23.3042C4.66253 22.8958 4.45836 22.397 4.45836 21.8077V6.19236C4.45836 5.60304 4.66253 5.10421 5.07086 4.69587C5.4792 4.28754 5.97802 4.08337 6.56735 4.08337H22.1827C22.772 4.08337 23.2708 4.28754 23.6791 4.69587C24.0875 5.10421 24.2916 5.60304 24.2916 6.19236V21.8077C24.2916 22.397 24.0875 22.8958 23.6791 23.3042C23.2708 23.7125 22.772 23.9167 22.1827 23.9167H6.56735ZM6.56735 22.1667H22.1827C22.2874 22.1667 22.3734 22.133 22.4407 22.0657C22.508 21.9984 22.5417 21.9124 22.5417 21.8077V18.4423H18.7051C18.1966 19.1812 17.565 19.7548 16.8104 20.1631C16.0558 20.5715 15.244 20.7756 14.375 20.7756C13.506 20.7756 12.6942 20.5715 11.9396 20.1631C11.185 19.7548 10.5534 19.1812 10.0449 18.4423H6.20833V21.8077C6.20833 21.9124 6.24199 21.9984 6.30931 22.0657C6.37663 22.133 6.46264 22.1667 6.56735 22.1667ZM14.375 19.0257C14.9972 19.0257 15.5746 18.8671 16.1071 18.55C16.6395 18.2329 17.0598 17.8044 17.3679 17.2645C17.4771 17.082 17.6211 16.941 17.7998 16.8415C17.9786 16.7421 18.1749 16.6924 18.3888 16.6924H22.5417V6.19236C22.5417 6.08765 22.508 6.00164 22.4407 5.93432C22.3734 5.867 22.2874 5.83335 22.1827 5.83335H6.56735C6.46264 5.83335 6.37663 5.867 6.30931 5.93432C6.24199 6.00164 6.20833 6.08765 6.20833 6.19236V16.6924H10.3612C10.5751 16.6924 10.7714 16.7421 10.9502 16.8415C11.1289 16.941 11.2729 17.082 11.3821 17.2645C11.6902 17.8044 12.1105 18.2329 12.6429 18.55C13.1754 18.8671 13.7528 19.0257 14.375 19.0257ZM6.56735 22.1667H6.20833H22.5417H6.56735Z" fill="#24272E" fill-opacity="0.32"/>
</g>
</g>
</svg>
