<svg width="29" height="28" viewBox="0 0 29 28" fill="none" xmlns="http://www.w3.org/2000/svg">
<g id="auto_awesome_mosaic">
<mask id="mask0_98_899" style="mask-type:alpha" maskUnits="userSpaceOnUse" x="0" y="0" width="29" height="28">
<rect id="Bounding box" x="0.125" width="28" height="28" fill="#D9D9D9"/>
</mask>
<g mask="url(#mask0_98_899)">
<path id="auto_awesome_mosaic_2" d="M12.9583 24.5H5.95833C5.31667 24.5 4.76736 24.2715 4.31042 23.8146C3.85347 23.3576 3.625 22.8083 3.625 22.1667V5.83333C3.625 5.19167 3.85347 4.64236 4.31042 4.18542C4.76736 3.72847 5.31667 3.5 5.95833 3.5H12.9583V24.5ZM15.2917 12.8333V3.5H22.2917C22.9333 3.5 23.4826 3.72847 23.9396 4.18542C24.3965 4.64236 24.625 5.19167 24.625 5.83333V12.8333H15.2917ZM15.2917 24.5V15.1667H24.625V22.1667C24.625 22.8083 24.3965 23.3576 23.9396 23.8146C23.4826 24.2715 22.9333 24.5 22.2917 24.5H15.2917Z" fill="#24272E"/>
</g>
</g>
</svg>
