<svg width="29" height="28" viewBox="0 0 29 28" fill="none" xmlns="http://www.w3.org/2000/svg">
<g id="face">
<mask id="mask0_102_1943" style="mask-type:alpha" maskUnits="userSpaceOnUse" x="0" y="0" width="29" height="28">
<rect id="Bounding box" x="0.875" width="28" height="28" fill="#D9D9D9"/>
</mask>
<g mask="url(#mask0_102_1943)">
<path id="face_2" d="M11.375 16.625C10.9667 16.625 10.6216 16.4841 10.3396 16.2021C10.0577 15.9202 9.91671 15.575 9.91671 15.1667C9.91671 14.7584 10.0577 14.4132 10.3396 14.1313C10.6216 13.8493 10.9667 13.7084 11.375 13.7084C11.7834 13.7084 12.1285 13.8493 12.4105 14.1313C12.6924 14.4132 12.8334 14.7584 12.8334 15.1667C12.8334 15.575 12.6924 15.9202 12.4105 16.2021C12.1285 16.4841 11.7834 16.625 11.375 16.625ZM18.375 16.625C17.9667 16.625 17.6216 16.4841 17.3396 16.2021C17.0577 15.9202 16.9167 15.575 16.9167 15.1667C16.9167 14.7584 17.0577 14.4132 17.3396 14.1313C17.6216 13.8493 17.9667 13.7084 18.375 13.7084C18.7834 13.7084 19.1285 13.8493 19.4105 14.1313C19.6924 14.4132 19.8334 14.7584 19.8334 15.1667C19.8334 15.575 19.6924 15.9202 19.4105 16.2021C19.1285 16.4841 18.7834 16.625 18.375 16.625ZM14.875 23.3334C17.4806 23.3334 19.6875 22.4292 21.4959 20.6209C23.3042 18.8125 24.2084 16.6056 24.2084 14C24.2084 13.5334 24.1792 13.0813 24.1209 12.6438C24.0625 12.2063 23.9556 11.7834 23.8 11.375C23.3917 11.4723 22.9834 11.5452 22.575 11.5938C22.1667 11.6424 21.7389 11.6667 21.2917 11.6667C19.5223 11.6667 17.85 11.2875 16.275 10.5292C14.7 9.77087 13.3584 8.71115 12.25 7.35004C11.6278 8.86671 10.7382 10.1841 9.58129 11.3021C8.42435 12.4202 7.07782 13.2612 5.54171 13.825V14C5.54171 16.6056 6.44587 18.8125 8.25421 20.6209C10.0625 22.4292 12.2695 23.3334 14.875 23.3334ZM14.875 25.6667C13.2612 25.6667 11.7445 25.3605 10.325 24.748C8.9056 24.1355 7.67087 23.3042 6.62087 22.2542C5.57087 21.2042 4.73962 19.9695 4.12712 18.55C3.51462 17.1306 3.20837 15.6139 3.20837 14C3.20837 12.3862 3.51462 10.8695 4.12712 9.45004C4.73962 8.0306 5.57087 6.79587 6.62087 5.74587C7.67087 4.69587 8.9056 3.86462 10.325 3.25212C11.7445 2.63962 13.2612 2.33337 14.875 2.33337C16.4889 2.33337 18.0056 2.63962 19.425 3.25212C20.8445 3.86462 22.0792 4.69587 23.1292 5.74587C24.1792 6.79587 25.0105 8.0306 25.623 9.45004C26.2355 10.8695 26.5417 12.3862 26.5417 14C26.5417 15.6139 26.2355 17.1306 25.623 18.55C25.0105 19.9695 24.1792 21.2042 23.1292 22.2542C22.0792 23.3042 20.8445 24.1355 19.425 24.748C18.0056 25.3605 16.4889 25.6667 14.875 25.6667Z" fill="#24272E"/>
</g>
</g>
</svg>
