<svg width="29" height="28" viewBox="0 0 29 28" fill="none" xmlns="http://www.w3.org/2000/svg">
<g id="inbox">
<mask id="mask0_102_1903" style="mask-type:alpha" maskUnits="userSpaceOnUse" x="0" y="0" width="29" height="28">
<rect id="Bounding box" x="0.375" width="28" height="28" fill="#D9D9D9"/>
</mask>
<g mask="url(#mask0_102_1903)">
<path id="inbox_2" d="M6.20833 24.5C5.56667 24.5 5.01736 24.2715 4.56042 23.8146C4.10347 23.3576 3.875 22.8083 3.875 22.1667V5.83333C3.875 5.19167 4.10347 4.64236 4.56042 4.18542C5.01736 3.72847 5.56667 3.5 6.20833 3.5H22.5417C23.1833 3.5 23.7326 3.72847 24.1896 4.18542C24.6465 4.64236 24.875 5.19167 24.875 5.83333V22.1667C24.875 22.8083 24.6465 23.3576 24.1896 23.8146C23.7326 24.2715 23.1833 24.5 22.5417 24.5H6.20833ZM14.375 18.6667C14.9972 18.6667 15.5708 18.5063 16.0958 18.1854C16.6208 17.8646 17.0486 17.4417 17.3792 16.9167C17.4958 16.7417 17.6417 16.6007 17.8167 16.4937C17.9917 16.3868 18.1861 16.3333 18.4 16.3333H22.5417V5.83333H6.20833V16.3333H10.35C10.5639 16.3333 10.7583 16.3868 10.9333 16.4937C11.1083 16.6007 11.2542 16.7417 11.3708 16.9167C11.7014 17.4417 12.1292 17.8646 12.6542 18.1854C13.1792 18.5063 13.7528 18.6667 14.375 18.6667Z" fill="#24272E"/>
</g>
</g>
</svg>
