<svg width="29" height="28" viewBox="0 0 29 28" fill="none" xmlns="http://www.w3.org/2000/svg">
<g id="search">
<mask id="mask0_114_2391" style="mask-type:alpha" maskUnits="userSpaceOnUse" x="0" y="0" width="29" height="28">
<rect id="Bounding box" x="0.625" width="28" height="28" fill="#D9D9D9"/>
</mask>
<g mask="url(#mask0_114_2391)">
<path id="search_2" d="M11.7083 18.6667C9.58889 18.6667 7.79514 17.9326 6.32708 16.4646C4.85903 14.9965 4.125 13.2028 4.125 11.0833C4.125 8.96389 4.85903 7.17014 6.32708 5.70208C7.79514 4.23403 9.58889 3.5 11.7083 3.5C13.8278 3.5 15.6215 4.23403 17.0896 5.70208C18.5576 7.17014 19.2917 8.96389 19.2917 11.0833C19.2917 11.9389 19.1556 12.7458 18.8833 13.5042C18.6111 14.2625 18.2417 14.9333 17.775 15.5167L24.3083 22.05C24.5222 22.2639 24.6292 22.5361 24.6292 22.8667C24.6292 23.1972 24.5222 23.4694 24.3083 23.6833C24.0944 23.8972 23.8222 24.0042 23.4917 24.0042C23.1611 24.0042 22.8889 23.8972 22.675 23.6833L16.1417 17.15C15.5583 17.6167 14.8875 17.9861 14.1292 18.2583C13.3708 18.5306 12.5639 18.6667 11.7083 18.6667ZM11.7083 16.3333C13.1667 16.3333 14.4062 15.8229 15.4271 14.8021C16.4479 13.7812 16.9583 12.5417 16.9583 11.0833C16.9583 9.625 16.4479 8.38542 15.4271 7.36458C14.4062 6.34375 13.1667 5.83333 11.7083 5.83333C10.25 5.83333 9.01042 6.34375 7.98958 7.36458C6.96875 8.38542 6.45833 9.625 6.45833 11.0833C6.45833 12.5417 6.96875 13.7812 7.98958 14.8021C9.01042 15.8229 10.25 16.3333 11.7083 16.3333Z" fill="#24272E"/>
</g>
</g>
</svg>
