<svg width="20" height="20" viewBox="0 0 20 20" fill="none" xmlns="http://www.w3.org/2000/svg">
<g id="more_vert">
<mask id="mask0_102_1688" style="mask-type:alpha" maskUnits="userSpaceOnUse" x="0" y="0" width="20" height="20">
<rect id="Bounding box" width="20" height="20" fill="#D9D9D9"/>
</mask>
<g mask="url(#mask0_102_1688)">
<path id="more_vert_2" d="M10 16.0577C9.65627 16.0577 9.36201 15.9353 9.11722 15.6905C8.87243 15.4457 8.75003 15.1515 8.75003 14.8077C8.75003 14.464 8.87243 14.1697 9.11722 13.9249C9.36201 13.6801 9.65627 13.5577 10 13.5577C10.3437 13.5577 10.638 13.6801 10.8828 13.9249C11.1276 14.1697 11.25 14.464 11.25 14.8077C11.25 15.1515 11.1276 15.4457 10.8828 15.6905C10.638 15.9353 10.3437 16.0577 10 16.0577ZM10 11.25C9.65627 11.25 9.36201 11.1276 9.11722 10.8828C8.87243 10.638 8.75003 10.3438 8.75003 10C8.75003 9.65629 8.87243 9.36203 9.11722 9.11724C9.36201 8.87245 9.65627 8.75005 10 8.75005C10.3437 8.75005 10.638 8.87245 10.8828 9.11724C11.1276 9.36203 11.25 9.65629 11.25 10C11.25 10.3438 11.1276 10.638 10.8828 10.8828C10.638 11.1276 10.3437 11.25 10 11.25ZM10 6.44232C9.65627 6.44232 9.36201 6.31992 9.11722 6.07513C8.87243 5.83036 8.75003 5.53609 8.75003 5.19234C8.75003 4.84861 8.87243 4.55434 9.11722 4.30955C9.36201 4.06477 9.65627 3.94238 10 3.94238C10.3437 3.94238 10.638 4.06477 10.8828 4.30955C11.1276 4.55434 11.25 4.84861 11.25 5.19234C11.25 5.53609 11.1276 5.83036 10.8828 6.07513C10.638 6.31992 10.3437 6.44232 10 6.44232Z" fill="#24272E" fill-opacity="0.32"/>
</g>
</g>
</svg>
