<svg width="24" height="24" viewBox="0 0 24 24" fill="none" xmlns="http://www.w3.org/2000/svg">
<mask id="mask0_60_95" style="mask-type:alpha" maskUnits="userSpaceOnUse" x="0" y="0" width="24" height="24">
<rect width="24" height="24" fill="#D9D9D9"/>
</mask>
<g mask="url(#mask0_60_95)">
<path d="M3.1846 12L10.7173 19.5327C10.916 19.7314 11.0128 19.9654 11.0077 20.2346C11.0025 20.5038 10.9006 20.7378 10.7019 20.9365C10.5032 21.1352 10.2692 21.2346 10 21.2346C9.73077 21.2346 9.4968 21.1352 9.2981 20.9365L1.62695 13.2808C1.44615 13.1 1.31217 12.8974 1.225 12.6731C1.13784 12.4487 1.09425 12.2244 1.09425 12C1.09425 11.7757 1.13784 11.5513 1.225 11.3269C1.31219 11.1026 1.44617 10.9 1.62695 10.7193L9.2981 3.0481C9.4968 2.84938 9.73334 2.75258 10.0077 2.7577C10.2821 2.76283 10.5186 2.86476 10.7173 3.06348C10.916 3.26219 11.0154 3.49616 11.0154 3.76538C11.0154 4.03461 10.916 4.26858 10.7173 4.4673L3.1846 12Z" fill="#24272E" fill-opacity="0.32"/>
</g>
</svg>
